<svg xmlns="http://www.w3.org/2000/svg" viewBox="0 0 33.14 33.14"><defs><style>.cls-1{fill:#1e9cd7;}</style></defs><title>Asset 2</title><g id="Layer_2" data-name="Layer 2"><g id="Layer_1-2" data-name="Layer 1"><circle class="cls-1" cx="25.35" cy="7.86" r="1.94"/><path class="cls-1" d="M16.71,8.41a8.16,8.16,0,1,0,8.16,8.16A8.17,8.17,0,0,0,16.71,8.41Zm0,13.39a5.23,5.23,0,1,1,5.23-5.23A5.23,5.23,0,0,1,16.71,21.8Z"/><path class="cls-1" d="M23.19,33.14H10a10,10,0,0,1-10-10V10A10,10,0,0,1,10,0H23.19a10,10,0,0,1,10,10V23.19A10,10,0,0,1,23.19,33.14ZM10,3.12A6.84,6.84,0,0,0,3.12,10V23.19A6.84,6.84,0,0,0,10,30H23.19A6.84,6.84,0,0,0,30,23.19V10a6.84,6.84,0,0,0-6.84-6.84Z"/></g></g></svg>