<svg xmlns="http://www.w3.org/2000/svg" xmlns:xlink="http://www.w3.org/1999/xlink" viewBox="0 0 447.85 365.56"><defs><style>.cls-1{opacity:0.09;}.cls-2{fill:#8a88f3;}.cls-3{opacity:0.06;}.cls-4{opacity:0.64;}.cls-5{fill:#cf1b27;}.cls-6{fill:url(#linear-gradient);}.cls-21,.cls-7{fill:#fff;}.cls-8{fill:url(#linear-gradient-2);}.cls-9{fill:#1e9cd7;}.cls-10{fill:#0e7eaa;}.cls-11,.cls-16{opacity:0.48;}.cls-12,.cls-16{fill:#1b1b6d;}.cls-13{fill:#fac4c4;}.cls-14{opacity:0.08;}.cls-15{fill:url(#linear-gradient-3);}.cls-17{fill:#f2b1b1;}.cls-18{fill:#f2be3b;}.cls-19{fill:#eab02f;}.cls-20{fill:#f4c74a;}.cls-21{opacity:0.58;}.cls-22{opacity:0.43;}.cls-23{opacity:0.56;}.cls-24{fill:#183b99;}.cls-25{fill:#ef9c9c;opacity:0.61;}.cls-26{fill:#121254;}.cls-27{fill:url(#linear-gradient-4);}.cls-28{fill:url(#linear-gradient-5);}.cls-29{fill:url(#linear-gradient-6);}.cls-30{fill:#9a98e5;opacity:0.24;}</style><linearGradient id="linear-gradient" x1="69.14" y1="192.1" x2="159.84" y2="192.1" gradientUnits="userSpaceOnUse"><stop offset="0" stop-color="#ff0015"/><stop offset="1" stop-color="#ba0d00"/></linearGradient><linearGradient id="linear-gradient-2" x1="29.73" y1="335.05" x2="113.33" y2="335.05" xlink:href="#linear-gradient"/><linearGradient id="linear-gradient-3" x1="20.41" y1="360.55" x2="447.85" y2="360.55" xlink:href="#linear-gradient"/><linearGradient id="linear-gradient-4" x1="166.69" y1="166.77" x2="222.42" y2="166.77" gradientUnits="userSpaceOnUse"><stop offset="0" stop-color="#1e9cd7"/><stop offset="1" stop-color="#0075be"/></linearGradient><linearGradient id="linear-gradient-5" x1="154.91" y1="190.05" x2="175.81" y2="190.05" xlink:href="#linear-gradient-4"/><linearGradient id="linear-gradient-6" x1="235.54" y1="274.22" x2="386.24" y2="274.22" xlink:href="#linear-gradient-4"/></defs><title>Asset 5</title><g id="Layer_2" data-name="Layer 2"><g id="Layer_1-2" data-name="Layer 1"><g class="cls-1"><path class="cls-2" d="M88.84,113a.61.61,0,0,0,.36-.31.92.92,0,0,0,0-.69l-.39.17,0,0,.41-.13c-.15-.45-.49-.68-.84-.57l.14.42h0c0,.25-.14.41.06.76.08,0,.1,0,.15,0Z"/><path class="cls-2" d="M75.5,160.7l-.16-.49s0,0,0,0c-.07-.23.14-.31,0-.58a.22.22,0,0,0-.16,0l-.17-.51a.77.77,0,0,0-.44,1l.48-.16h0l-.48.16a.82.82,0,0,0,.25.38A.64.64,0,0,0,75.5,160.7Z"/><path class="cls-2" d="M157.18,121.34l.22-.63a2.59,2.59,0,0,1-.25-.54,1,1,0,0,0-.41-.59l-.62.39a.83.83,0,0,1,0,.26,1.36,1.36,0,0,0,.08,1.07l.51.21Z"/><path class="cls-2" d="M183.71,178.44l.3-.22a1.45,1.45,0,0,0-.1-1.24.62.62,0,0,0-.65-.24l-.33.43c0-.06,0-.13,0-.14l-.33.5C182.85,178.52,183.51,178.48,183.71,178.44Z"/><path class="cls-2" d="M154.71,180.25l.19.17a1.3,1.3,0,0,0,1,.07,1.47,1.47,0,0,0,1-1.1l-.17-.49-.58-.47-.52-.06-.19.06a1.17,1.17,0,0,0-1,1.24l.08.23Z"/><path class="cls-2" d="M162.23,158.28l.58.34a.84.84,0,0,0,.51-.48.69.69,0,0,0-.09-.58l-.54-.17-.12,0c-.17.06-.68.25-.58.76l.25.15A.18.18,0,0,1,162.23,158.28Z"/><path class="cls-2" d="M178.06,138.17l-.13.11.56-.48a.94.94,0,0,0-.42-.65.88.88,0,0,0-.72,0l-.11,0-.23.53a.47.47,0,0,1,0,.33l.57.49A1,1,0,0,0,178.06,138.17Z"/><path class="cls-2" d="M166.26,209.61l.41.38a2,2,0,0,1,.33.05,2.78,2.78,0,0,0,.48.07l.43-.49a1.14,1.14,0,0,0-.53-.77.78.78,0,0,0-.65-.09A.73.73,0,0,0,166.26,209.61Z"/><path class="cls-2" d="M170.26,192.18a.77.77,0,0,0,.51-.95l-.44-.31-.13,0a1.1,1.1,0,0,0-.58,0l-.23.1-.21.4a.86.86,0,0,0,.38.66A.79.79,0,0,0,170.26,192.18Z"/><path class="cls-2" d="M70.87,138a.94.94,0,0,0,.76.22l.32-.56a1.24,1.24,0,0,0-1.28-.74.61.61,0,0,0-.4.57l.49.43Z"/><path class="cls-2" d="M84.14,176.59l0,.05a1.6,1.6,0,0,0,.17,1.53,1.56,1.56,0,0,0,1.45.62l.58-.27.37-.36.23-.34.09-.15a2.21,2.21,0,0,0,.33-1.88,1.85,1.85,0,0,0-1.09-1.1l-1,.19-.42.39-.11-.07A1.6,1.6,0,0,0,84.14,176.59Z"/><path class="cls-2" d="M95.32,140.53l.19.12a1.42,1.42,0,0,0,.9,0,1.18,1.18,0,0,0,.78-1.29L97,139l-.67-.47a1.29,1.29,0,0,0-.83,0l-.18.08-.26.27-.2.5v.34l.11.35.11.19Z"/><path class="cls-2" d="M92,214.31h.36A1.64,1.64,0,0,0,93.49,213l0-.29-.21-.43-.21-.22a1.43,1.43,0,0,0-1.11-.11,1.28,1.28,0,0,0-.79.72,1.39,1.39,0,0,0,.07,1.18l.27.24Z"/><path class="cls-2" d="M112.66,207.35a1.19,1.19,0,0,0,.61.11l.35-.19.43-.59a1.29,1.29,0,0,0,.12-.59l-.19-.36-.64-.46a1.29,1.29,0,0,0-.56-.09l-.36.19L112,206a1.2,1.2,0,0,0-.1.61l.2.34Z"/><path class="cls-2" d="M85,146.31a1.27,1.27,0,0,0,.57.09l.36-.2.45-.66a1.26,1.26,0,0,0-.08-1.06l-.25-.22-.5-.2H85.2l-.52.17-.29.25-.27.53,0,.37.11.35.22.27Z"/><path class="cls-2" d="M55.73,155.55l.08.12a.81.81,0,0,0,.7.49l.38-.57c0-.1,0-.16,0-.33l-.47-.51-.2,0a1.1,1.1,0,0,0-.67-.06.61.61,0,0,0-.41.62l.71.31A.16.16,0,0,1,55.73,155.55Z"/><path class="cls-2" d="M74.65,223.32a.81.81,0,0,0,.59-1l-.55-.34a.9.9,0,0,0-.52-.14l-.43.55a1,1,0,0,0-.15.52l.22.35A1.1,1.1,0,0,0,74.65,223.32Z"/><path class="cls-2" d="M60.54,175.75a.77.77,0,0,0-1-.54l-.32.44a.73.73,0,0,1,0,.13,1.06,1.06,0,0,0,.12.8l.4.21A.81.81,0,0,0,60.54,175.75Z"/><path class="cls-2" d="M75.7,184.44l-.1.49.08.42c.24.75.66,1.11,1.27,1l.36-.22.11-.17h.06a1.1,1.1,0,0,0,.69-1.2l-.07-.19-.22-.33a1.12,1.12,0,0,0-1.36-.55,1.94,1.94,0,0,0-.68.43Z"/><path class="cls-2" d="M71.73,175.49l.39-.18.41-.52.09-.42a1.92,1.92,0,0,0-.81-1.32,1.31,1.31,0,0,0-1.05-.09l-.23.1-.25.28-.19.56,0,.37A1.87,1.87,0,0,0,71.73,175.49Z"/><path class="cls-2" d="M53.41,195.42a6.88,6.88,0,0,1,.45-2l-.62-.51a2.34,2.34,0,0,0-.87,1.67,1.26,1.26,0,0,0,.34,1.07Z"/><path class="cls-2" d="M71.43,203.57l.39-.45a.58.58,0,0,1,0-.13,1.07,1.07,0,0,0-.11-.8l-.45-.21L71,202a.85.85,0,0,0-.67,1l.55.37A.94.94,0,0,0,71.43,203.57Z"/><path class="cls-2" d="M124.15,150.32l0,0a1.86,1.86,0,0,0,.86.49l.26.33.47.28.16.08a1.75,1.75,0,0,0,.83.12l.71-.42.37-.53.13-.26a1.77,1.77,0,0,0-.11-1.42l-.5-.46-.5-.2h-.22l-.45-.49-.58-.25-.83,0a1.62,1.62,0,0,0-1.21,1.88l.44.64Z"/><path class="cls-2" d="M142.62,164.39a1.17,1.17,0,0,0,.75-.67,1.06,1.06,0,0,0-.07-.92l-.25-.21-.27-.11,0,.06-.32-.21-.43-.06-.35.12-.21.13-.27.29-.12.21a1.14,1.14,0,0,0,.31,1.14A1.28,1.28,0,0,0,142.62,164.39Z"/><path class="cls-2" d="M135,183.92a2.17,2.17,0,0,0,.86-.53l.26-.46.1-.43,0-.54-.29-.87-.49-.57-.53-.27-.75-.06-1,.34-.58.5-.26.53,0,.75A2.25,2.25,0,0,0,135,183.92Z"/><path class="cls-2" d="M125.94,159.49l.46.19h.82a2.33,2.33,0,0,0,1.59-2.14l0-.18-.12-.63-.26-.45-.49-.42a2,2,0,0,0-2.72,1.18,2.39,2.39,0,0,0,.23,2.05Z"/><path class="cls-2" d="M128.16,114.52l.47-.54-.34-1.05-.71-.14a3.06,3.06,0,0,1-.64.56,2.49,2.49,0,0,0-.74.7l.11.57a1.17,1.17,0,0,0,1.28,0A1,1,0,0,1,128.16,114.52Z"/><path class="cls-2" d="M130.4,221.59l-.39.53,1.25,0-.5-.42A.8.8,0,0,0,130.4,221.59Z"/><path class="cls-2" d="M109.89,167.91l-.27.53-.06.75.11.35.44.54.61.34a1.67,1.67,0,0,0,.82.13l.71-.41.38-.53.14-.27a1.76,1.76,0,0,0-.11-1.43l-.5-.45-.5-.2-.67,0-.53.17Z"/><path class="cls-2" d="M104.2,158.56l.21.39.39.39a1.77,1.77,0,0,0,1.43.11,2.27,2.27,0,0,0,1.37-1.26l0-.71-.19-.53-.46-.53a2,2,0,0,0-1.63-.21,1.88,1.88,0,0,0-1.25,1.81Z"/><path class="cls-2" d="M102.17,131.86a.7.7,0,0,0,0-.55l-.64-.23a.77.77,0,0,0-.74-.16,1,1,0,0,0-.22.11l-.2.38a.91.91,0,0,0,.4.73A1,1,0,0,0,102.17,131.86Z"/><path class="cls-2" d="M111.25,134.56a1.22,1.22,0,0,0,.84-.84,1.17,1.17,0,0,0-.33-1.11l-.24-.14-.43-.1h-.27l-.52.17-.22.15-.29.34-.11.25a1.17,1.17,0,0,0,.39,1.09A1.22,1.22,0,0,0,111.25,134.56Z"/><path class="cls-2" d="M158.58,143.71l.21-.06a.65.65,0,0,0,.34-1.09l-.14-.12a.76.76,0,0,0-.61-.08c-.46.15-.55.72-.59,1l.64.43Z"/><path class="cls-2" d="M94.48,165.5h.44l.52-.14a3,3,0,0,0,1.24-1.69l0-.57-.1-.45-.28-.49a1.85,1.85,0,0,0-1.87-.45,2.07,2.07,0,0,0-1.38,1.73,2,2,0,0,0,.88,1.91Z"/><path class="cls-2" d="M131.16,203.29l.1.14.48.31.35.07.25-.06a1.31,1.31,0,0,0,.79-.68,2,2,0,0,0-.11-1.54l-.24-.26-.5-.25-.36,0-.11,0a1.84,1.84,0,0,0-1,.77l-.07.18-.05.3v.18a1.49,1.49,0,0,0,.5.84Z"/><path class="cls-2" d="M112.39,177.26a1.91,1.91,0,0,0-1-.26l-.76.43-.38.55-.12.86.17.52.55.6.58.25.85,0a1.62,1.62,0,0,0,1.22-1.83l-.41-.65Z"/><path class="cls-2" d="M31.63,177.65a.69.69,0,0,0,.54.06l-.15-.45s.1,0,.13-.06-.27-.46-.34-.47-.12,0-.17.07l-.15-.45a.56.56,0,0,0-.37.73A1,1,0,0,0,31.63,177.65Z"/><path class="cls-2" d="M90.61,192l.45.47.46.24.64.09.45-.12a2.29,2.29,0,0,0,1.74-2.22l-.18-.54-.26-.38-.43-.35a2.2,2.2,0,0,0-1.54-.05,2.24,2.24,0,0,0-1.35,1.19A2,2,0,0,0,90.61,192Z"/><path class="cls-2" d="M137.39,138.46a1.24,1.24,0,0,0,.62.1l.35-.2.42-.6a1.18,1.18,0,0,0,.1-.61l-.19-.34-.59-.42a1.26,1.26,0,0,0-.59-.11l-.35.19-.45.62a1.22,1.22,0,0,0-.1.6l.19.35Z"/><path class="cls-2" d="M106,229.4l-.25.2a1.11,1.11,0,0,0,.1,1.16.77.77,0,0,0,.83.27l.25-.2a1.13,1.13,0,0,0-.11-1.16A.76.76,0,0,0,106,229.4Z"/><path class="cls-2" d="M156.71,197.53l.29-.27a1.6,1.6,0,0,0-.13-1.25l-.45-.23-.11,0a.92.92,0,0,0-.56,1.15A.78.78,0,0,0,156.71,197.53Z"/></g><g class="cls-3"><path class="cls-2" d="M438.1,361c-25.53-20.67-36.68-54.41-43.4-86.81-4.22-20.35-7.34-41.33-16.84-59.76-10.89-21.12-31.47-38.22-54.95-39.67s-48.06,16.25-50,40c-2.3-17.34-4.68-35-11.84-50.88-4.5-10-10.78-19.05-17.43-27.72-8.21-10.68-17.13-20.93-27.8-29.09C180.91,80.4,128,81.34,94,109.25c-10.78,8.86-19.77,20.19-24.81,33.28-6.57,17.05-6.15,36.22-2.09,54.05s11.59,34.64,19.06,51.31C56.25,236.64,19,252.1,5.52,281.41S4.21,349.54,32,365.56"/></g><g class="cls-4"><path class="cls-5" d="M177.5,238.88c10.29-8.06,20.6-16.1,31.29-23.62A258.51,258.51,0,0,1,242,195.07a170.42,170.42,0,0,1,20.1-8.51.48.48,0,0,0-.33-.91,188.81,188.81,0,0,0-35.15,16.8,368.73,368.73,0,0,0-32.24,22.18c-5.85,4.42-11.63,8.94-17.41,13.46-.49.38.06,1.18.55.8Z"/><path class="cls-5" d="M214.22,211.28a134.29,134.29,0,0,1,23-36.41q4-4.57,8.49-8.75c.45-.43-.29-1.06-.73-.63a135.15,135.15,0,0,0-26.33,34.38q-2.88,5.37-5.27,11c-.24.57.63,1,.88.41Z"/><path class="cls-5" d="M261.26,186.9c.95-6,7-11.94,12.72-13.84s12.06-1.24,17.82.58a1.58,1.58,0,0,1,.87.51c.34.5,0,1.18-.3,1.69a29.9,29.9,0,0,1-13.51,11.8c-5.63,2.29-12.32,2.28-17.59-.74"/><path class="cls-5" d="M245.16,166.33c-1.49-4.45.21-9.41,3-13.21A26.19,26.19,0,0,1,263.57,143a27.57,27.57,0,0,1-4.63,15.94,17.57,17.57,0,0,1-13.78,7.43"/><path class="cls-5" d="M227,187a30.39,30.39,0,0,1,1.61-16.74c.23-.58-.65-1-.88-.41a31.32,31.32,0,0,0-1.7,17.24c.11.61,1.08.53,1-.08Z"/><path class="cls-5" d="M228,170.56a10.34,10.34,0,0,1-2.37-3.08A9.55,9.55,0,0,1,225,163a18.66,18.66,0,0,1,8.24-14.26,13.84,13.84,0,0,1,2.39,6.94,13.34,13.34,0,0,1-.41,4.21c-1.12,4.27-4.14,7.54-7.21,10.71"/><path class="cls-5" d="M225.6,204.18c3,1.38,6.26,2.78,9.59,1.89.6-.16.27-1.07-.33-.91-3,.81-6.14-.6-8.85-1.86a.48.48,0,0,0-.41.88Z"/><path class="cls-5" d="M234.55,205.42c2.69-2.66,5.64-5.45,9.38-6a14.25,14.25,0,0,1,5.09.39,35.88,35.88,0,0,1,8.5,3.08c.16.08.33.18.37.36a.61.61,0,0,1-.09.39c-1.7,3.5-5.82,5-9.63,5.82a19.36,19.36,0,0,1-7.46.35,9.47,9.47,0,0,1-6.18-4.41"/><path class="cls-5" d="M223.59,193.06a13.39,13.39,0,0,1,4.17-5.21,23.65,23.65,0,0,1,9.74-5.26,12.89,12.89,0,0,1,10.64,2,14.47,14.47,0,0,1-3.65,4.27,20.75,20.75,0,0,1-6.08,4c-4.68,1.78-10,1.44-14.83.3"/></g><g class="cls-4"><path class="cls-6" d="M142.57,256c-17.63-4.77-37.73-10.78-49.88-24.42a12.2,12.2,0,0,1-3.3-5.78c-.38-2.21.6-4.81,2.71-5.59,1.55-.57,3.26-.07,4.82.45q5.31,1.76,10.54,3.74c1.34-.69.34-2.73-.78-3.73C95.5,210.76,80.33,205,72.13,192.44c-1.74-2.67-3.15-5.73-3-8.91s2.33-6.42,5.47-7c4.42-.76,8.08,3.71,12.53,4.26.86-1.38.05-3.17-.81-4.55C81.17,168,73.77,160.94,70.9,151.64a28.22,28.22,0,0,1-.38-15.22,11.35,11.35,0,0,1,3.32-6.07,9.53,9.53,0,0,1,4.32-1.9c5.18-1,10.64.94,14.72,4.29s6.92,8,9.09,12.8c1.52,3.37,2.79,7,5.24,9.72,2.75-1.6,3.2-5.31,3.45-8.48s1-6.91,3.94-8.15c2.34-1,5.07.16,7,1.82a23.07,23.07,0,0,1,5.47,7.78,66.75,66.75,0,0,1,6,29.24c0,2-.08,4.09.82,5.87s3.17,3,4.94,2.12a6,6,0,0,0,2.11-2.46,15.31,15.31,0,0,1,4.4-5.19,6.27,6.27,0,0,1,6.48-.54,8.57,8.57,0,0,1,3,3.75c4.6,9.19,5.79,19.84,4.6,30s-4.66,20-9,29.36c-2.38,5.15-4.12,11.34-7.87,15.6"/><path class="cls-5" d="M142,254.12c-3.57-2.38-7.26-5.37-10.82-7.75-3.92-2.62-7.91-5.29-10.9-8.93-1.81-2.2-3.26-4.88-3.16-7.73,0-1.12.32-2.22.4-3.34.28-4.05-2.09-7.87-5-10.66s-6.53-4.84-9.65-7.44a34.75,34.75,0,0,1-7.48-8.72,11.09,11.09,0,0,1-1.88-5.23,25.28,25.28,0,0,1,.8-4.94c.8-4.78-1-9.62-3.18-13.94S86.19,167,85,162.28a8,8,0,0,1-.16-4.25c1.18-3.94,6.94-4.62,10.37-2.33s5.2,6.28,7.23,9.86a52.93,52.93,0,0,0,7.18,9.8,5.35,5.35,0,0,0,2.8,1.9c2.19.38,4-1.83,6.23-2,2.84-.26,4.82,2.71,5.94,5.33a70.11,70.11,0,0,1,4.55,15.19c.76,4.25,1.73,9.37,5.76,10.91,2,.76,4.33.41,6.15,1.5,2.66,1.59,2.89,5.28,2.81,8.38-.32,12.34-1.53,25.24-1.85,37.58"/><path class="cls-7" d="M74.6,130.57q7.81,11.49,15,23.39t14,24.15q6.72,12.11,13.14,24.39t12.82,24.69c4.23,8.2,8.42,16.42,11.06,25.3q.5,1.67.92,3.35c.15.6,1.12.48,1-.13a93.84,93.84,0,0,0-4.33-12.95c-1.79-4.29-3.87-8.45-6-12.59q-6.39-12.48-12.89-24.9t-13.18-24.63q-6.73-12.23-13.87-24.23t-14.9-23.58L75.37,130c-.35-.52-1.12.07-.77.58Z"/><path class="cls-7" d="M72.27,185a156.25,156.25,0,0,0,34.52,15.47q5.14,1.59,10.39,2.82c.61.14.73-.82.12-1a155.27,155.27,0,0,1-35-12.88q-4.78-2.45-9.38-5.22c-.53-.32-1.13.44-.6.76Z"/><path class="cls-7" d="M71.72,147.45a66,66,0,0,0,19.89,10c.59.18,1-.71.37-.89a65.19,65.19,0,0,1-19.66-9.82c-.5-.37-1.1.39-.6.76Z"/><path class="cls-7" d="M76.09,160.69A45.67,45.67,0,0,0,94.82,163c.62-.05.49-1-.13-1a44.49,44.49,0,0,1-18.23-2.27c-.59-.2-1,.69-.37.89Z"/><path class="cls-7" d="M79.13,199.57A67.72,67.72,0,0,0,110,207a71,71,0,0,0,9.09-.59.48.48,0,0,0-.13-1,68,68,0,0,1-31.26-3.21,66.06,66.06,0,0,1-8.19-3.54c-.55-.28-.93.61-.37.89Z"/><path class="cls-7" d="M108,183.91c3-11.36,6-22.78,7.36-34.47.39-3.31.65-6.63.75-10,0-.62-.94-.75-1-.12-.35,11.77-2.76,23.34-5.61,34.72-.81,3.24-1.66,6.47-2.51,9.71-.16.6.8.72,1,.12Z"/><path class="cls-7" d="M110,187.82a17.81,17.81,0,0,0,4.25-5.06c1.4-2.16,2.8-4.32,4.15-6.51a97.13,97.13,0,0,0,7.15-13.48,56,56,0,0,0,2.71-8.16c.15-.6-.81-.72-1-.12-2.4,9.74-7.77,18.36-13.16,26.69-1.36,2.1-2.65,4.39-4.72,5.88-.51.37.08,1.14.58.77Z"/><path class="cls-7" d="M90.76,227.41a97.65,97.65,0,0,0,44,10.68c.61,0,.75-1,.12-1a96.63,96.63,0,0,1-43.78-10.61c-.56-.28-.93.61-.37.89Z"/><path class="cls-7" d="M109.15,243.63a55.19,55.19,0,0,0,28,.1c.6-.15.48-1.12-.13-1a54.55,54.55,0,0,1-27.77-.1c-.6-.16-.72.8-.12,1Z"/><path class="cls-7" d="M129.65,225.62a93.76,93.76,0,0,0,23.8-44.91c.13-.61-.83-.73-1-.12A92.91,92.91,0,0,1,128.89,225c-.43.45.34,1,.76.6Z"/></g><g class="cls-4"><path class="cls-8" d="M113.33,341.32c-7.89,7.2-17.16,15.22-27.7,16.93a7.13,7.13,0,0,1-3.88-.19,2.93,2.93,0,0,1-1.9-3.09,4.35,4.35,0,0,1,1.74-2.24q2.53-2.07,5.16-4c.08-.88-1.24-1-2.09-.78-8.42,2.4-16,8.06-24.79,8.17a8.9,8.9,0,0,1-5.33-1.33,4.28,4.28,0,0,1-1.71-4.88c1-2.42,4.36-2.82,6-4.84-.41-.86-1.55-1-2.5-1-5.69,0-11.51,1.39-17-.12a16.5,16.5,0,0,1-7.62-4.59,6.63,6.63,0,0,1-2-3.54,5.57,5.57,0,0,1,.42-2.73,10.68,10.68,0,0,1,6.74-5.91,20.26,20.26,0,0,1,9.17-.47,21.62,21.62,0,0,0,6.44.47c.07-1.86-1.61-3.25-3.1-4.36s-3.09-2.67-2.78-4.5c.25-1.46,1.67-2.45,3.09-2.88a13.48,13.48,0,0,1,5.56-.26,39,39,0,0,1,16.3,6.23,7.35,7.35,0,0,0,3.15,1.43,2.3,2.3,0,0,0,2.6-1.77,3.48,3.48,0,0,0-.55-1.81,9,9,0,0,1-1.18-3.8A3.67,3.67,0,0,1,77.38,312a5,5,0,0,1,2.79-.3,31.27,31.27,0,0,1,16.26,7.16,57.07,57.07,0,0,1,11.67,13.64c1.8,2.79,4.3,5.59,5.22,8.78"/><path class="cls-5" d="M112.2,341c-2.29,1-4.93,1.89-7.22,2.91a28.11,28.11,0,0,1-7.82,2.57,7,7,0,0,1-4.8-.87c-.54-.37-1-.85-1.52-1.24-1.91-1.41-4.54-1.44-6.84-.86s-4.43,1.7-6.7,2.42a20.32,20.32,0,0,1-6.65,1,6.48,6.48,0,0,1-3.17-.71,14.78,14.78,0,0,1-2.18-1.95c-2.11-1.9-5-2.54-7.87-2.81s-5.71-.26-8.41-1.14A4.67,4.67,0,0,1,46.86,339c-1.57-1.82-.1-4.87,2.1-5.85s4.73-.59,7.13-.47a30.94,30.94,0,0,0,7.09-.46,3.13,3.13,0,0,0,1.82-.78c.87-1,.36-2.56,1-3.71.76-1.48,2.85-1.53,4.5-1.26A41,41,0,0,1,79.38,329c2.34,1,5.17,2.09,7.19.58,1-.74,1.56-2,2.67-2.56,1.62-.81,3.51.23,5,1.25,6,4,12,8.68,18,12.71"/><path class="cls-7" d="M30.11,335.46c5.41-.16,10.83-.17,16.24-.05s10.87.36,16.29.69,10.77.73,16.15,1.18,10.8.94,16.2,1.43A86.13,86.13,0,0,1,111,341.2q1,.28,1.94.6c.34.11.58-.4.24-.51a54.86,54.86,0,0,0-7.75-1.93c-2.68-.46-5.38-.75-8.09-1q-8.16-.76-16.33-1.46c-5.42-.46-10.85-.88-16.28-1.23s-10.86-.62-16.3-.77-10.87-.18-16.31-.06l-2,.05c-.37,0-.32.58,0,.56Z"/><path class="cls-7" d="M56.25,353.71a91.35,91.35,0,0,0,18.47-12.17q2.4-2,4.65-4.24c.26-.25-.18-.61-.44-.36a90.77,90.77,0,0,1-17.35,13.24q-2.71,1.59-5.52,3c-.32.16-.14.7.19.53Z"/><path class="cls-7" d="M37.54,342.18a38.58,38.58,0,0,0,11.15-6.68c.27-.24,0-.7-.32-.46a38.11,38.11,0,0,1-11,6.61c-.34.13-.15.67.19.53Z"/><path class="cls-7" d="M45.44,344.18a26.7,26.7,0,0,0,7-8.5c.17-.32-.34-.56-.51-.24a26,26,0,0,1-6.84,8.28c-.28.23,0,.69.32.46Z"/><path class="cls-7" d="M65.57,354.89A39.59,39.59,0,0,0,78.9,342a41.48,41.48,0,0,0,2.57-4.67.28.28,0,0,0-.51-.24,39.74,39.74,0,0,1-11.4,14.41,38.62,38.62,0,0,1-4.31,2.93c-.31.18,0,.65.32.46Z"/><path class="cls-7" d="M66.9,335.74a149.29,149.29,0,0,0-14.69-14.45c-1.51-1.23-3.06-2.4-4.68-3.5-.3-.2-.66.23-.36.44a95.71,95.71,0,0,1,15.36,13.67c1.34,1.42,2.67,2.85,4,4.28.25.27.61-.17.36-.44Z"/><path class="cls-7" d="M69.48,336a10.41,10.41,0,0,0-1.16-3.69c-.63-1.37-1.25-2.74-1.91-4.09A56.79,56.79,0,0,0,62,320.42a32.74,32.74,0,0,0-3.18-3.9c-.25-.26-.61.17-.36.44,4.05,4.24,6.62,9.6,9,14.87A11.94,11.94,0,0,1,68.91,336a.28.28,0,0,0,.56,0Z"/><path class="cls-7" d="M83,357.89A57.09,57.09,0,0,0,102,339.52c.19-.3-.24-.67-.44-.36a56.49,56.49,0,0,1-19,18.26c-.31.18,0,.65.32.46Z"/><path class="cls-7" d="M96.72,353.91a32.27,32.27,0,0,0,8.85-13.79c.11-.34-.4-.59-.51-.24a31.89,31.89,0,0,1-8.77,13.66c-.27.25.17.61.44.36Z"/><path class="cls-7" d="M94.27,338.15A54.82,54.82,0,0,0,79.6,312.31c-.26-.26-.62.18-.36.44a54.32,54.32,0,0,1,14.5,25.59c.09.35.62.16.53-.19Z"/></g><g class="cls-4"><path class="cls-9" d="M153.86,294.9c-23.28-3.76-47.75-10.4-68.48-21.65s-39.23-27-52.31-46.58c-3.13-4.69-6-9.75-6.69-15.34s1.24-11.82,6-14.85c6-3.83,13.91-1.47,20.33,1.58,18.84,8.93,34.89,22.7,50.41,36.62,19.62,17.59,40,35.94,51.49,59.65"/><path class="cls-10" d="M153.53,294.69c-6.34-3.51-14-6-20.6-8.89-13.46-5.86-27.48-10.43-40.66-16.9A155.69,155.69,0,0,1,49.81,238.2c-8.44-8.61-16.1-18.7-18.37-30.54-.3-1.55-.47-3.27.37-4.61a4.69,4.69,0,0,1,4.53-1.84,13.46,13.46,0,0,1,4.78,1.85,359.35,359.35,0,0,1,71,50.81c2.37,2.17,4.7,4.38,7,6.59l30,28.33a18.12,18.12,0,0,1,4.37,5.34"/><path class="cls-7" d="M28.53,202.24q10.64,10.26,21.84,19.93t22.91,18.68q11.76,9.06,24,17.45c8.61,5.9,17.42,11.5,26.21,17.13l27,17.34,3.32,2.13c.53.34,1.07-.46.55-.8l-26.93-17.27c-8.87-5.69-17.79-11.32-26.52-17.21Q88.75,251.39,77,242.49T54,224q-11.31-9.61-22.07-19.85l-2.64-2.53c-.45-.43-1.18.2-.73.63Z"/><path class="cls-7" d="M90.58,253.57a85.79,85.79,0,0,1-25-2.33q-3.47-.85-6.85-2a.48.48,0,0,0-.32.91,86.68,86.68,0,0,0,24.85,4.46q3.62.11,7.25-.09c.61,0,.69-1,.07-1Z"/><path class="cls-7" d="M72,238.47A72.68,72.68,0,0,0,64.36,217c-1-1.89-2.15-3.72-3.34-5.51-.34-.52-1.07.12-.73.63a71.52,71.52,0,0,1,9.33,20.37q.85,3,1.42,6.15a.48.48,0,0,0,1-.19Z"/><path class="cls-7" d="M51.44,221.84A37.81,37.81,0,0,1,34,215.7c-.52-.35-1.07.45-.55.8a38.86,38.86,0,0,0,17.94,6.31.48.48,0,0,0,.07-1Z"/><path class="cls-7" d="M115.26,269.28a28.24,28.24,0,0,0-2.18-10.46,88.38,88.38,0,0,0-4.62-9.82,21.8,21.8,0,0,0-3.44-4.9c-.43-.45-1.17.19-.73.63a22.67,22.67,0,0,1,3.74,5.52q1.51,2.92,2.88,5.92c1.87,4.11,3.43,8.46,3.39,13,0,.62,1,.7,1,.07Z"/><path class="cls-7" d="M132.81,280.39a72.2,72.2,0,0,1-24.34-3.61.48.48,0,0,0-.32.91,73,73,0,0,0,24.59,3.67c.62,0,.69-1,.07-1Z"/></g><g class="cls-4"><path class="cls-5" d="M133.54,317.39c-12.13-4.86-24.26-9.74-36.13-15.21a258.51,258.51,0,0,1-34.12-18.57,170.42,170.42,0,0,1-17.45-13.12.48.48,0,0,0-.63.74,188.81,188.81,0,0,0,32.17,22A368.73,368.73,0,0,0,112.74,310c6.76,2.84,13.57,5.57,20.38,8.3.58.23,1-.64.42-.87Z"/><path class="cls-5" d="M91.23,299.49a134.29,134.29,0,0,1-43-1.6q-6-1.2-11.83-2.95c-.6-.18-.77.78-.18,1a135.15,135.15,0,0,0,43,5.52q6.1-.2,12.15-1c.62-.08.54-1-.08-1Z"/><path class="cls-5" d="M46.54,271c-5.64,2.17-13.83,0-18.35-4.05s-7.12-9.81-8.44-15.7a1.58,1.58,0,0,1,0-1c.26-.55,1-.61,1.61-.59a29.9,29.9,0,0,1,17,5.77c4.8,3.72,8.15,9.51,8.19,15.59"/><path class="cls-5" d="M36.83,295.27c-3.1,3.52-8.25,4.54-12.91,4.08a26.19,26.19,0,0,1-16.53-8.28,27.57,27.57,0,0,1,16.11-4,17.57,17.57,0,0,1,13.34,8.19"/><path class="cls-5" d="M63.77,300.61a30.39,30.39,0,0,1-15.29,7c-.61.09-.54,1.06.08,1a31.32,31.32,0,0,0,15.76-7.18c.47-.4-.08-1.2-.56-.79Z"/><path class="cls-5" d="M49.09,308a10.34,10.34,0,0,1-1.48,3.59A9.55,9.55,0,0,1,44,314.4a18.66,18.66,0,0,1-16.47,0,13.84,13.84,0,0,1,4.81-5.56,13.34,13.34,0,0,1,3.84-1.76c4.25-1.17,8.6-.21,12.88.86"/><path class="cls-5" d="M79.39,293.2c-.3-3.27-.74-6.81-3.17-9.25-.44-.44-1.06.3-.63.74,2.23,2.23,2.56,5.61,2.83,8.59a.48.48,0,0,0,1-.08Z"/><path class="cls-5" d="M76,284.84c-3.64-1-7.55-2.15-9.88-5.12a14.25,14.25,0,0,1-2.22-4.6,35.88,35.88,0,0,1-1.6-8.9.63.63,0,0,1,.12-.5.61.61,0,0,1,.38-.12c3.88-.29,7.28,2.5,9.87,5.41a19.36,19.36,0,0,1,4,6.28,9.47,9.47,0,0,1-.72,7.56"/><path class="cls-5" d="M70.78,300.52a13.39,13.39,0,0,1-6.6-1,23.65,23.65,0,0,1-9.44-5.78,12.89,12.89,0,0,1-3.65-10.19,14.47,14.47,0,0,1,5.53,1,20.75,20.75,0,0,1,6.47,3.27c3.89,3.15,6.24,7.89,7.7,12.68"/></g><g class="cls-4"><path class="cls-9" d="M198.81,274.56c10.76-21,24.64-42.21,41.74-58.45s37.76-29,60.45-35.37c5.42-1.53,11.13-2.69,16.66-1.63s10.86,4.83,12.28,10.28c1.79,6.88-2.9,13.68-7.78,18.85-14.31,15.16-32.37,26.18-50.4,36.64-22.79,13.23-46.53,26.94-72.63,30.55"/><path class="cls-10" d="M199.11,274.31c5.29-4.94,10-11.42,14.82-16.84,9.73-11,18.4-22.91,28.63-33.45a155.69,155.69,0,0,1,42.31-30.91c10.79-5.37,22.76-9.54,34.72-8,1.57.2,3.26.56,4.27,1.77a4.69,4.69,0,0,1,.35,4.88,13.46,13.46,0,0,1-3.23,4,359.35,359.35,0,0,1-70.26,51.85c-2.8,1.58-5.62,3.12-8.44,4.66L206.06,272a18.12,18.12,0,0,1-6.43,2.51"/><path class="cls-7" d="M325.64,184q-13,7-25.7,14.61t-24.85,16q-12.25,8.39-24,17.45c-8.27,6.37-16.31,13-24.39,19.64l-24.84,20.36-3.05,2.5c-.48.4.11,1.16.59.77l24.74-20.28c8.15-6.68,16.26-13.42,24.56-19.91q11.6-9.07,23.69-17.48t24.72-16.21q12.64-7.79,25.69-14.86l3.22-1.73c.55-.29.17-1.19-.38-.89Z"/><path class="cls-7" d="M257.65,227.14a85.79,85.79,0,0,1,9.93-23.05q1.88-3,4-5.9c.37-.5-.4-1.09-.77-.59a86.68,86.68,0,0,0-11.91,22.26q-1.22,3.41-2.16,6.92c-.16.59.74,1,.9.37Z"/><path class="cls-7" d="M277.76,214.12a72.68,72.68,0,0,0,22.77-.63c2.11-.4,4.2-.89,6.27-1.47.6-.17.22-1.06-.38-.89a71.52,71.52,0,0,1-22.25,2.58q-3.16-.13-6.29-.54a.48.48,0,0,0-.11,1Z"/><path class="cls-7" d="M299.92,199.71A37.81,37.81,0,0,1,311.15,185c.49-.39-.1-1.16-.59-.77A38.86,38.86,0,0,0,299,199.35a.48.48,0,0,0,.9.37Z"/><path class="cls-7" d="M235.09,245.76a28.24,28.24,0,0,0,10.63,1.16,88.38,88.38,0,0,0,10.77-1.36,21.8,21.8,0,0,0,5.73-1.76c.56-.27.18-1.17-.38-.89a22.67,22.67,0,0,1-6.41,1.85c-2.16.35-4.34.66-6.52.91-4.48.51-9.11.65-13.44-.8-.59-.2-1,.7-.37.9Z"/><path class="cls-7" d="M219.1,259a72.2,72.2,0,0,1,11-22c.37-.5-.4-1.09-.77-.59a73,73,0,0,0-11.08,22.26c-.18.59.72,1,.9.37Z"/></g><path class="cls-9" d="M58.46,23.82A41.25,41.25,0,0,1,91.54,89.7L101,103.16,82.89,98.29A41.24,41.24,0,1,1,58.46,23.82Z"/><g class="cls-11"><path class="cls-12" d="M32.76,52.27H81.32c.65,0,1.33,0,2,0h.09a.43.43,0,0,0,0-.86H34.83c-.65,0-1.33,0-2,0h-.09a.43.43,0,0,0,0,.86Z"/><path class="cls-12" d="M32.76,60h26.6a.43.43,0,0,0,0-.86H32.76a.43.43,0,0,0,0,.86Z"/><path class="cls-12" d="M32.76,67.64H69.08a.43.43,0,0,0,0-.86H32.76a.43.43,0,0,0,0,.86Z"/><path class="cls-12" d="M32.76,75.32H81.32c.65,0,1.33,0,2,0h.09a.43.43,0,0,0,0-.86H34.83c-.65,0-1.33,0-2,0h-.09a.43.43,0,0,0,0,.86Z"/><path class="cls-12" d="M32.76,83H81.32c.65,0,1.33,0,2,0h.09a.43.43,0,0,0,0-.86H34.83c-.65,0-1.33,0-2,0h-.09a.43.43,0,0,0,0,.86Z"/></g><path class="cls-9" d="M189,2.86a31.88,31.88,0,0,1,2.23,56.94l2.38,12.51-11.21-9.22A31.88,31.88,0,1,1,189,2.86Z"/><g class="cls-11"><path class="cls-12" d="M176,32.2l.05-.11,0,0a1,1,0,0,1,1.24-.47A6.93,6.93,0,0,0,183,19a6.74,6.74,0,0,0-6.87.7,1,1,0,0,1-1.33-.24.91.91,0,0,1,.24-1.33,8.69,8.69,0,0,1,8.74-.88,8.83,8.83,0,0,1-6.39,16.44l-1.81,4a1,1,0,0,1-1.75-.79Zm-4.09,9a1,1,0,1,1,1.75.79l-.37.82a1,1,0,0,1-1.75-.79Z"/></g><path class="cls-12" d="M198.74,250.71l-71.8-.12c-3.85,0-7.86,0-11.31,1.69-7,3.39-9.26,12.06-10.27,19.69-3.67,27.66-1.81,55.71.06,83.54H219.13"/><path class="cls-13" d="M166.56,193.65c3.15,6.78,7.53,15.36,8.54,22.77s-1.62,13.84-6.56,19.45a37.77,37.77,0,0,0,32.72,7.89c.7-.17,1.5-.44,1.74-1.12a2.37,2.37,0,0,0-.52-1.91c-3.82-6.33-4-15.91-2-23"/><path class="cls-10" d="M379.67,325.42l4.56,29.4a.85.85,0,0,0,.84.72h18.71a.85.85,0,0,0,.84-.73l4.45-29.34a2.27,2.27,0,0,0-2.24-2.61h-25A2.22,2.22,0,0,0,379.67,325.42Z"/><path class="cls-10" d="M407.63,345.92a18.05,18.05,0,0,1-3.33-.32l.45-2.41c3.85.72,7.14.06,8.81-1.79a3.82,3.82,0,0,0,.81-3.82c-.89-3-6.83-3-9-2.71l-.29-2.44c.41,0,10-1.14,11.69,4.45a6.32,6.32,0,0,1-1.35,6.16C413.69,344.92,410.91,345.92,407.63,345.92Z"/><path class="cls-9" d="M382.89,345.9l1.38,8.91a.85.85,0,0,0,.84.72h18.71a.85.85,0,0,0,.84-.73l3.2-21.08C400.54,337.28,388.64,343,382.89,345.9Z"/><g class="cls-14"><path class="cls-2" d="M393.81,316.13a10.26,10.26,0,0,1-1-10.17c.86-1.85,2.26-3.41,3.15-5.25a15.06,15.06,0,0,0,1.09-8.37,9.91,9.91,0,0,1,2.05,9.83c-.42,1.18-1.06,2.27-1.45,3.46a4.63,4.63,0,0,0,.07,3.64,26.16,26.16,0,0,1,4-4.9,15.64,15.64,0,0,1-.44,5.23,6.77,6.77,0,0,1-.95,2.24c-.45.64-1.07,1.15-1.58,1.75a6.38,6.38,0,0,0-1.16,6,9.08,9.08,0,0,1-3.79-3.45"/></g><rect class="cls-15" x="20.41" y="355.54" width="427.44" height="10.02" rx="4.33" ry="4.33"/><path class="cls-9" d="M274,65.06A31.88,31.88,0,0,0,248.41,116l-7.34,10.41,14-3.76A31.88,31.88,0,1,0,274,65.06Z"/><path class="cls-16" d="M284,88.18c-.44-14-6.74-14.48-10.77-12.95s-4.72,5.72-2.13,11.21c1.49,3.15,5.52,3.4,8.69,3.05a44.07,44.07,0,0,1-1.48,17c-2.88-1.19-6.93-2.17-8.94.5-3.33,4.4-3.47,8.37,0,10.78,2.77,1.93,7.14,3,10.22-3.42C284.87,105.07,284.66,94.25,284,88.18Z"/><path class="cls-17" d="M325.16,345.15c-3.69-5.21-17.13-3.5-20.09-3.16s-12.14-1.36-12.14-1.36h0c-.23-.09-5.1.07-5.34,0-28.08-3.27-44.33-11.73-69-6.92l-17.68,13c27.65,8.23,56.69,6.32,85.2,4.17,4.4.08,37.29.68,39,0S328.85,350.36,325.16,345.15Z"/><path class="cls-18" d="M216.4,240c5.81.43,10.91,4.16,14.72,8.56,9.32,10.77,12.43,25.37,16.27,39.08s9.53,28.16,21.64,35.65c1.27.78,2.66,1.56,3.32,2.89,1,2.09-.16,4.55-1.32,6.57-3.69,6.41-7.87,13.25-14.74,16-10.35,4.11-21.72-2.93-29.54-10.85-8.36-8.46-15.42-18.65-18-30.26-1.62-7.18-1.48-14.62-1.17-22q.59-14,2-27.9"/><path class="cls-19" d="M211.24,261.26c5.79.65,10.73,4.14,14.35,8.16,8.86,9.83,11.36,22.71,14.64,34.85s8.36,25,20.14,32.11c1.23.74,2.6,1.48,3.2,2.68.95,1.87-.34,4-1.59,5.67-4,5.41-8.23,4.82-15.21,6.87-10.51,3.09-21.74,2.77-29.24-4.5-8-7.77-14.63-17-16.76-27.24-1.32-6.34-.87-12.82-.26-19.21q1.17-12.16,3.16-24.23"/><path class="cls-20" d="M172.8,229.7c2.34,3,6.66,4.77,10.25,5.78,7.6,2.13,10.23.42,16.57-3.09,4.41,2.94,9.87,4.79,15,6.2a9.76,9.76,0,0,1,3.25,1.29,6,6,0,0,1,2.47,3.52c4.35,22.47,5.45,32,9.57,49.11,1.71,7.07-1.55,20.48-2.63,27.67-1,6.7,4.38,18.31,4.4,25.09-18.17,0-38.12-7-56.29-7a5.14,5.14,0,0,1-2.21-.33c-1.17-.55-1.73-1.86-2.2-3.06l-6.26-16c-3.13-8-6.29-16.16-7.41-24.71-.67-5.14-.6-10.36-1.14-15.51-1.16-10.93-5.07-21.34-8.22-31.87a10.5,10.5,0,0,1-.61-5.3c.7-3.05,3.06-3.44,5.86-4.84,6.08-3,13.54-4,19.62-7"/><path class="cls-13" d="M272.69,347.9c-3.69-5.21-17.13-3.5-20.09-3.16s-12.14-1.36-12.14-1.36h0c-.23-.09-5.1.07-5.34,0-28.08-3.27-44.33-11.73-69-6.92l-21.31,17.67c29.26,2.72,60.33,1.63,88.84-.52,4.4.08,37.29.68,39,0S276.38,353.11,272.69,347.9Z"/><path class="cls-19" d="M163.52,300.29c7.55,3.34,15.69,6.78,24.15,6,2.48-.24,4.92-.85,7.42-.9,4.69-.1,9.13,1.76,13.79,2.14,6.36.52,12.54-1.72,18.39-3.9-.47,7.62-8,14.51-16.92,15.56-5.33.63-10.76-.61-16.13-.23-5.2.37-10.06,2.23-15,3.61s-10.46,2.26-15.33.67c-5.26-1.71-8.93-6.32-9-11.08S158,302.7,163,300.38"/><path class="cls-19" d="M189.54,236.48l-6.34,12.94-17.48-17,7.26-3A27.64,27.64,0,0,0,189.54,236.48Z"/><path class="cls-19" d="M190,236.46l6.68,11.64L206,235.74s-5.24-1.91-6.46-3.59Z"/><circle class="cls-21" cx="190.58" cy="246.46" r="1.64"/><circle class="cls-21" cx="193.34" cy="258.3" r="1.64"/><circle class="cls-21" cx="197.38" cy="272.37" r="1.64"/><circle class="cls-21" cx="199.01" cy="284.46" r="1.64"/><circle class="cls-21" cx="200.65" cy="298.65" r="1.64"/><circle class="cls-21" cx="201.55" cy="313.39" r="1.64"/><circle class="cls-21" cx="201.55" cy="328.29" r="1.64"/><path class="cls-19" d="M148.38,239.75c9.44,5.84,11.37,23.26,12.81,34.26s3.3,15.51,3.28,26.61,1.51,22.73,7.95,31.77a3.11,3.11,0,0,1,.86,2.34,2.91,2.91,0,0,1-.7,1.17,130.37,130.37,0,0,1-20.64,19.61c-1.37,1-2.91,2.11-4.63,2a19.42,19.42,0,0,1-7.92-2.51c-10.12-7.11-16.35-16.43-16.92-32.67-.19-5.27.8-22.6,1.5-27.83,2-15.34,4.51-31,12-44.57,2.71-4.91,6.83-9.93,12.43-10.22"/><g class="cls-22"><path class="cls-20" d="M165.31,308.69a8.65,8.65,0,0,1-3.82-.78,28.88,28.88,0,0,0-5.65-2.56,14.54,14.54,0,0,0-9.15.39,8.17,8.17,0,0,0-3.76,2.63,4.42,4.42,0,0,0-.6,4.39,4.76,4.76,0,0,0,3.6,2.41,14.07,14.07,0,0,0,4.49-.23l14.95-2.4c-3.23,1.79-7,2.32-10.42,3.73s-6.73,4.26-6.81,8a3.37,3.37,0,0,0,1.26,2.94,3.33,3.33,0,0,0,1.47.47c3,.34,5.74-1.45,7.95-3.46s4.19-4.36,6.89-5.63a2.57,2.57,0,0,0,1.37-1,2.28,2.28,0,0,0,0-1.49l-1.74-7.34"/></g><circle class="cls-10" cx="212.16" cy="188.28" r="13.15"/><path class="cls-17" d="M170.54,202.49c3.63,7.32,9.41,13.6,17.46,15,2.24.38,6.61,1.62,9.26,1.34,1.13-.12,3.58.18,3.67-1,0-.52-1.34-1-1.6-1.49a22.1,22.1,0,0,0-2-3.63,76.89,76.89,0,0,0-24.93-20.35"/><path class="cls-13" d="M172.32,198c-1-1.56-1.91-2.77-3-4.28-1.87-2.68-3.43-3.16-5.31-3.22-2.08-.08-3.6,2.7-3.39,5.35a9.51,9.51,0,0,0,3.58,6.43c2.33,1.87,7.94,4.08,9.67,1.41"/><path class="cls-13" d="M194.37,156.63c5.4-2.47,12.07.6,15.5,5.45s4.9,12.37,4.32,18.18c-.74,7.46,1.52,10.58.75,17.5-.55,5-2.37,8.69-5.49,13.5-1.3,2-2.66,6.5-6.76,7.44-2.67.61-7.41-1.93-10-2.87-7.63-2.79-14.09-6.3-17.88-13.48a27.11,27.11,0,0,1-1.05-23.5"/><path class="cls-17" d="M214,174.4c-2.92,3.61-8.09,4.3-12.73,4.5a60.59,60.59,0,0,1-6.39,0c-4.26-.27-8.89-1.17-12.51,1.09-2.66,1.66-4.13,4.7-5,7.7s-1.43,6.16-2.83,9a132.26,132.26,0,0,1-3.24-15c-.74-4.79-1.2-9.83.52-14.36a15.82,15.82,0,0,1,4.45-6.34c5.05-4.34,12.34-5.05,18.93-4.11"/><path class="cls-12" d="M207.62,180.63a10,10,0,0,1,7.75-3.22c.62,0,.62-.94,0-1a10.9,10.9,0,0,0-8.44,3.5c-.42.46.26,1.15.69.69Z"/><path class="cls-12" d="M195.33,179.65a25.11,25.11,0,0,0-6.2-.68,8.52,8.52,0,0,0-5.42,1.65c-.49.38.2,1.06.69.69a7.78,7.78,0,0,1,5.1-1.36,24.45,24.45,0,0,1,5.58.64.48.48,0,0,0,.26-.93Z"/><path class="cls-7" d="M194.89,202.54c4.37-.5,9.25-1,13.62-1.48l.57,0-.19.61a11.44,11.44,0,0,1-1.65,3.57,6.77,6.77,0,0,1-3.94,2.48,6.5,6.5,0,0,1-5-1.35,12.33,12.33,0,0,1-3.45-3.79"/><g class="cls-23"><path class="cls-24" d="M195.25,186.94a6.77,6.77,0,0,1-8.29.93c-.48-.31-.93.46-.45.76a7.67,7.67,0,0,0,9.37-1.07c.4-.41-.23-1-.63-.63Z"/></g><g class="cls-23"><path class="cls-24" d="M206,186.3a5.78,5.78,0,0,0,8.19-.66c.36-.44-.26-1.06-.63-.63a4.9,4.9,0,0,1-6.94.66c-.43-.37-1.06.26-.63.63Z"/></g><path class="cls-17" d="M201.56,184.61c1,3.33,2.54,7.62,3.56,10.95a1.78,1.78,0,0,1,.08,1.19c-.21.51-.82.69-1.35.82a21.51,21.51,0,0,1-3.6.19.7.7,0,0,1-.77-.78c.47-3.37,1.8-9.66,2.08-12.37"/><circle class="cls-25" cx="185.79" cy="196.16" r="3.82"/><ellipse class="cls-25" cx="212.86" cy="195.6" rx="2.41" ry="3.82"/><path class="cls-12" d="M196.18,132.32c-4.13-3.91-9.91-6.31-15.84-8-3.38-1-7-1.73-10.6-1.13a22.76,22.76,0,0,0-8.67,3.8c-9.15,6.07-16,15.38-15.87,24.92a19.22,19.22,0,0,0,8.67,15.22c-1.42,6.59-1.41,13.62,1.35,19.74,3.11,6.91,9.6,11.64,15.54,16.33-1.35-5-.57-9,.78-14s3.12-9.89,3.49-15a20.69,20.69,0,0,0-1.28-9.12l27.16-16.8C202.63,142.93,200.32,136.23,196.18,132.32Z"/><path class="cls-12" d="M221,190.43a73.71,73.71,0,0,0-3.35-20.69,29,29,0,0,0-8.42-16.63,24.65,24.65,0,0,0-20.44-6.64,13.05,13.05,0,0,0-7.89,3.75,8.8,8.8,0,0,0-2.24,5.67l-5-8.59a17.58,17.58,0,0,0-9.54,11.33,22.46,22.46,0,0,0,1.29,14.95c.87,2,2,3.84,2.73,5.86,1.29,3.46,1.47,7.22,2,10.89A58.08,58.08,0,0,0,181.19,217c-4.69-10.71-8.45-22.77-5.05-34,1.53-5,4.45-9.65,6.14-14.61a34.63,34.63,0,0,1-1.15,9.84l19.9-1.12a5,5,0,0,0,1.66-.28c2.27-.94,2.32-4.36,2-7l3.59,6.15a2.23,2.23,0,0,0,.77.9,2,2,0,0,0,1.19.09c1.38-.19,2.76-.4,4.13-.61a31.83,31.83,0,0,1,1.78,6.93A75,75,0,0,1,215,212.41C219.21,205.94,221,198.12,221,190.43Z"/><path class="cls-26" d="M162.27,177.27c.62-5.67,4.08-9.59,7.37-12.64q3.07-2.84,6.27-5.36c4.74-3.74,9.79-7.05,13.56-12.71a2.83,2.83,0,0,0,.61-1.93,1.5,1.5,0,0,0-1.73-1.21c-3.22.14-6.35,1.46-9.45,2.77l-12.07,5.1c-3.25,1.37-6.84,2.71-9.9.59-2.24-1.56-3.82-4.88-4.31-8.47a23.05,23.05,0,0,1,1.05-10.26c-5.2,5.44-8.58,12-8.47,18.75a19.22,19.22,0,0,0,8.67,15.22c-1.42,6.59-1.41,13.62,1.35,19.74,2.3,5.12,6.46,9,10.88,12.64a34.34,34.34,0,0,0-.63-5.06C164.3,188.68,161.62,183.2,162.27,177.27Z"/><path class="cls-26" d="M221,190.42a73.71,73.71,0,0,0-3.35-20.69,29,29,0,0,0-8.42-16.63,25.08,25.08,0,0,0-2.86-2.33,7.14,7.14,0,0,0,1.26,3.86c2.1,3.48,5.24,6.56,5.82,10.58.23,1.56-.28,3.55-1.82,3.86-1.06.22-2.05-.48-3-1-2.15-1.31-4.88-2.05-7.19-1.05-2,.87-3.3,2.86-4.93,4.34s-4.31,2.41-5.95.94c-1.34-1.2-1.24-3.32-2.13-4.88-1.53-2.68-5.56-2.82-8.22-1.25s-4.39,4.28-6.39,6.63c-1.78,2.1-4.1,4.06-6.77,4.37.37.76.72,1.52,1,2.31,1.29,3.46,1.47,7.22,2,10.89A58.08,58.08,0,0,0,181.19,217c-4.69-10.71-8.45-22.77-5.05-34,1.53-5,4.45-9.65,6.14-14.61a34.63,34.63,0,0,1-1.15,9.84l19.9-1.12a5,5,0,0,0,1.66-.28c2.27-.94,2.32-4.36,2-7l3.59,6.15a2.23,2.23,0,0,0,.77.9,2,2,0,0,0,1.19.09c1.38-.19,2.76-.4,4.13-.61a31.83,31.83,0,0,1,1.78,6.93A75,75,0,0,1,215,212.4C219.21,205.93,221,198.11,221,190.42Z"/><path class="cls-26" d="M187.89,209.91c-16-2.83-23.06-16-23.14-16.19l1-.54c.08.15,8.27,15.31,26.79,16.07l0,1.15A34.44,34.44,0,0,1,187.89,209.91Z"/><path class="cls-26" d="M196.53,210a2.72,2.72,0,0,1-3.14,1.73c-1.47-.21-2.45-1.31-2.19-2.47a2.72,2.72,0,0,1,3.14-1.73C195.81,207.7,196.79,208.81,196.53,210Z"/><ellipse class="cls-10" cx="166.72" cy="190.05" rx="11.81" ry="13.15"/><path class="cls-27" d="M220.73,184.91c-2.53-29.81-20.36-35-21.8-35.06-26.89-.6-29.29,28.46-29.4,29.72l-2.84-.25c0-.33,1.59-33.85,31.18-32.06.2,0,22.28,1.76,24.55,39.08Z"/><ellipse class="cls-28" cx="165.36" cy="190.05" rx="10.45" ry="13.15"/><path class="cls-9" d="M173.48,181.78c0,.2,0,.4,0,.61,0,7.26-4.68,13.15-10.45,13.15a9.8,9.8,0,0,1-8.12-4.88c.25,7,4.82,12.54,10.43,12.54,5.77,0,10.45-5.89,10.45-13.15A15.3,15.3,0,0,0,173.48,181.78Z"/><rect class="cls-29" x="235.54" y="223.09" width="150.7" height="102.27" rx="6.38" ry="6.38"/><path class="cls-30" d="M381.12,223.09c-45.56,47.42-123.84,81.47-145.58,90.35v6.45a5.46,5.46,0,0,0,5.46,5.46H380.78a5.46,5.46,0,0,0,5.46-5.46V228.53A5.45,5.45,0,0,0,381.12,223.09Z"/><rect class="cls-10" x="293.65" y="274.87" width="25.31" height="50.37"/><path class="cls-9" d="M332.13,356H303.3a2.29,2.29,0,0,1-2.28-2.07l-7.37-79.06a2.29,2.29,0,0,1,2.28-2.5H325.2a2.29,2.29,0,0,1,2.28,2.09l6.93,79.06A2.29,2.29,0,0,1,332.13,356Z"/><rect class="cls-10" x="200.06" y="351.51" width="157.69" height="4.49" rx="1.64" ry="1.64"/></g></g></svg>