<svg xmlns="http://www.w3.org/2000/svg" viewBox="0 0 35.16 28.94"><defs><style>.cls-1{fill:#1e9cd7;}</style></defs><title>Asset 3</title><g id="Layer_2" data-name="Layer 2"><g id="Layer_1-2" data-name="Layer 1"><path class="cls-1" d="M35,3.47a14.52,14.52,0,0,1-3.56,1c.57-.1,1.41-1.13,1.75-1.55A6.52,6.52,0,0,0,34.39.78c0-.06.05-.14,0-.18a.2.2,0,0,0-.19,0A18.14,18.14,0,0,1,30,2.22a.28.28,0,0,1-.29-.08,3.44,3.44,0,0,0-.37-.38,7.45,7.45,0,0,0-2-1.25A7.11,7.11,0,0,0,24.14,0a7.49,7.49,0,0,0-3,.84,7.66,7.66,0,0,0-2.4,2,7.36,7.36,0,0,0-1.43,2.87,7.76,7.76,0,0,0-.08,3c0,.17,0,.19-.15.17C11.33,8,6.53,5.94,2.63,1.5c-.17-.19-.26-.19-.4,0C.53,4.07,1.36,8.18,3.49,10.2c.28.27.58.54.89.78a7.38,7.38,0,0,1-2.8-.78c-.17-.11-.25,0-.27.15a4.4,4.4,0,0,0,0,.83,7.43,7.43,0,0,0,4.58,5.92,4.34,4.34,0,0,0,.93.28,8.27,8.27,0,0,1-2.74.08c-.2,0-.28.06-.2.25C5.13,21,7.73,22,9.68,22.54c.26,0,.52,0,.78.11l0,0c-.65,1-2.89,1.72-3.93,2.08a14.08,14.08,0,0,1-6,.76c-.32,0-.39,0-.48,0s0,.13.09.21c.41.27.82.51,1.24.74a19.71,19.71,0,0,0,4,1.6c7.18,2,15.26.53,20.65-4.83,4.23-4.2,5.71-10,5.71-15.81,0-.23.27-.35.43-.47A14,14,0,0,0,35,4.06a.89.89,0,0,0,.19-.56v0C35.16,3.38,35.15,3.4,35,3.47Z"/></g></g></svg>